<?xml version="1.0" encoding="UTF-8"?>
<svg width="750px" height="750px" viewBox="0 0 750 750" version="1.1" xmlns="http://www.w3.org/2000/svg">
  <g fill="none" stroke="currentColor" stroke-width="10">
    <path d="M362.378125,551.130109 C350.422956,555.572516 351.404299,572.29689 354.082373,582.740904 C325.96176,555.546737 313.882983,499.154797 330.076247,468.733523 C337.257709,455.242159 350.157337,434.326361 352.535852,425.78036"></path>
    <path d="M361.430147,438.5274 C350.749305,467.605877 335.122865,495.275269 349.426514,525.25271 C365.738745,554.594235 376.308238,581.169436 375.42741,614.935892 C410.061311,581.28316 425.381602,547.34796 427.573945,508.183291 C429.766288,469.018622 421.678366,457.858481 402.231696,419.208225"></path>
    <path d="M410,313.122178 C422.480392,310.572889 423.916058,298.186987 432.073637,288.351212 C478.639232,232.206034 536.216496,254.350116 593.75171,136 C598.044778,188.58642 582.817484,280.571173 525.078316,303.361084 C547.307535,310.007565 571.124781,304.406739 594.215356,291.787683 C585.08793,320.021109 564.150479,337.536971 539.832277,351.798192 C547.685138,362.729958 558.202995,364.119431 572.838421,364.867373 C557.439832,382.985767 533.104013,388.233596 511.302676,387.716829 C516.279698,404.146207 526.535983,410.78539 541.839045,416.749093 C508.436773,428.098429 441.184119,431.678509 411.7602,403.103814"></path>
    <path d="M156,313.122178 C168.480392,310.572889 169.916058,298.186987 178.073637,288.351212 C224.639232,232.206034 282.216496,254.350116 339.75171,136 C344.044778,188.58642 328.817484,280.571173 271.078316,303.361084 C293.307535,310.007565 317.124781,304.406739 340.215356,291.787683 C331.08793,320.021109 310.150479,337.536971 285.832277,351.798192 C293.685138,362.729958 304.202995,364.119431 318.838421,364.867373 C303.439832,382.985767 279.104013,388.233596 257.302676,387.716829 C262.279698,404.146207 272.535983,410.78539 287.839045,416.749093 C254.436773,428.098429 187.184119,431.678509 157.7602,403.103814" transform="translate(248.215949, 280.571173) scale(-1, 1) translate(-248.215949, -280.571173)"></path>
    <path d="M375.326447,457.926465 C348.113306,419.997776 298.654809,357.872306 338.673161,313.823557 C347.18584,310.172903 354.655303,306.23468 355.142117,295.29914 C355.933713,277.517179 348.88595,249.159125 327.338947,270.664273 C318.958157,250.622644 330.016084,246.722385 348.408934,245.168607 C350.425752,214.284 390.369648,225.840934 394.493157,244.214849 C398.616667,262.588764 394.776964,279.8315 396.465507,297.677431 C397.540016,309.033733 403.45466,309.536753 411.973515,313.823557 C451.991867,357.872306 402.539588,419.997776 375.326447,457.926465 Z"></path>
  </g>
</svg>
