<svg viewBox="0 0 240 141" xmlns="http://www.w3.org/2000/svg">
  <path d="M2.06399295,90.8599973 C2.60399293,90.8599973 3.14265959,91.1306639 3.68265957,91.3999973 C37.3839921,111.08133 79.1746577,122.94533 122.31199,122.94533 C151.430656,122.94533 183.514655,116.743997 212.902654,104.34133 C217.486654,102.45333 221.261321,107.306664 216.677321,110.542664 C190.525322,129.954663 152.509323,140.199996 119.61599,140.199996 C73.7826578,140.199996 32.2613255,123.214663 0.985326309,94.9053305 C-0.901340311,93.0173306 0.177326329,90.8599973 2.06399295,90.8599973 Z M223.147987,86.2773307 C231.237321,86.2773307 237.707987,87.894664 239.055987,89.5119973 C242.02132,93.2866639 238.246654,117.82133 224.226654,129.68533 C221.799987,131.302663 219.913321,130.49333 220.722654,128.066663 C223.957321,120.247996 230.966654,102.45333 227.731987,98.1399971 C224.226654,93.8266639 205.354655,95.9826638 196.995988,97.0613305 C194.569321,97.3306638 194.030655,95.1733305 196.457321,93.5559972 C204.275988,88.1639973 214.521321,86.2773307 223.147987,86.2773307 Z M154.126656,18.7759978 C158.171989,18.7759978 162.215989,19.5839978 166.259989,20.9319978 C167.067989,21.2026648 167.607989,21.4719978 167.877322,22.0106648 C168.146655,22.5506648 168.417322,23.0893318 168.417322,23.8986648 L168.417322,23.8986648 L168.417322,26.5946648 C168.417322,27.6733308 167.877322,28.2119978 167.067989,28.2119978 C166.798655,28.2119978 165.990656,27.9426648 164.911989,27.6733308 C161.675989,26.5946648 158.171989,26.0546648 154.666656,26.0546648 C148.465323,26.0546648 145.499989,28.2119978 145.499989,32.2559978 C145.499989,34.1439978 146.038656,35.2213308 147.117323,36.2999978 C147.926656,37.3786648 150.082656,38.4573308 153.047989,39.5359978 L153.047989,39.5359978 L160.597322,42.5013306 C164.371989,43.8493306 167.069322,45.7373305 168.686655,47.6239972 C170.303989,49.7813304 171.113322,52.2079971 171.113322,55.443997 C171.113322,60.0266635 169.494655,63.5319968 165.990656,66.2279967 C162.485322,68.9239966 158.171989,70.2719966 152.509323,70.2719966 C147.117323,70.2719966 142.263989,69.4626633 137.950656,67.5759967 C137.141323,67.3066633 136.602656,66.7666634 136.33199,66.49733 C136.062656,65.95733 135.793323,65.4186634 135.793323,64.6106634 L135.793323,64.6106634 L135.793323,61.9133301 C135.793323,60.8359968 136.062656,60.2959968 136.87199,60.2959968 C137.410656,60.2959968 138.21999,60.5653302 139.298656,60.8359968 C143.611989,62.1839968 147.926656,62.7226635 152.509323,62.7226635 C155.475989,62.7226635 157.902656,61.9133301 159.518656,60.8359968 C161.137322,59.7573302 161.945322,57.8693302 161.945322,55.711997 C161.945322,54.095997 161.675989,53.0173304 160.597322,51.9386637 C159.518656,50.8599971 157.901322,50.0506638 155.205322,48.9719971 L155.205322,48.9719971 L147.117323,46.0066639 C140.106656,43.3106639 136.602656,38.7266648 136.602656,32.5253308 C136.602656,28.4813308 138.21999,24.9773318 141.454656,22.5506648 C144.690656,20.1239978 149.005323,18.7759978 154.126656,18.7759978 Z M222.339987,19.2359978 C225.170321,19.2359978 228.207883,19.8556434 231.271349,20.5518516 L232.585321,20.8533308 C233.123987,21.1226638 233.662654,21.6626638 233.93332,21.9319978 C234.202654,22.2013308 234.471987,23.0106638 234.471987,23.8199978 L234.471987,23.8199978 L234.471987,26.5159978 C234.471987,27.8639968 233.93332,28.4026638 233.123987,28.4026638 C232.585321,28.4026638 232.315987,28.4026638 231.506654,28.1333308 C229.079987,27.3239978 226.383987,27.0546638 223.687987,27.0546638 C218.294654,27.0546638 214.521321,28.4026638 212.094654,31.0986638 C209.667988,33.7946638 208.589321,38.1093308 208.319988,44.0399966 L208.319988,44.0399966 L208.319988,45.3893299 C208.319988,51.0506631 209.398654,55.3639963 211.825321,58.0599962 C214.251988,60.7559962 218.026654,62.1039961 223.147987,62.1039961 C225.845321,62.1039961 228.810654,61.5653295 231.775987,60.7559962 C232.315987,60.4866628 232.854654,60.4866628 233.123987,60.4866628 C233.93332,60.4866628 234.471987,61.0253295 234.471987,62.3746628 L234.471987,62.3746628 L234.471987,65.2569015 C234.470393,65.9999803 234.451269,66.708714 234.202654,66.9573294 C233.93332,67.4973293 233.394654,67.7666627 232.585321,68.035996 C229.619987,69.383996 225.845321,69.9226626 221.799987,69.9226626 C214.250654,69.9226626 208.589321,67.7666627 204.545321,63.4533294 C200.501321,59.1386629 198.614655,52.9373297 198.614655,44.8493299 C198.614655,36.7613308 200.770655,30.2906638 204.814655,25.9759978 C209.127988,21.3933308 214.790654,19.2359978 222.339987,19.2359978 Z M93.1946573,19.5066645 C94.5426573,19.5066645 95.081324,20.0453315 95.081324,21.3933315 L95.081324,21.3933315 L95.081324,51.8599971 C95.081324,55.3653303 95.6213239,57.7919969 96.9693239,59.4093302 C98.3173239,61.0266635 100.473324,61.8359968 103.43999,61.8359968 C108.022657,61.8359968 112.606657,60.2186635 117.190657,57.2519969 L117.190657,57.2519969 L117.190657,21.3933315 C117.190657,20.3146645 117.729323,19.5066645 119.346657,19.5066645 L119.346657,19.5066645 L125.009323,19.5066645 C126.357323,19.5066645 126.89599,20.0453315 126.89599,21.3933315 L126.89599,21.3933315 L126.89599,65.8799967 C126.89599,67.2279967 126.357323,67.7679967 125.009323,67.7679967 L125.009323,67.7679967 L120.750303,67.7677933 C120.060265,67.7657598 119.592717,67.7433906 119.346657,67.49733 C118.80799,67.2279967 118.538657,66.9586634 118.538657,66.1493301 L118.538657,66.1493301 L117.998657,62.9146635 C112.06799,67.2279967 105.866657,69.38533 99.6653238,69.38533 C95.081324,69.38533 91.577324,68.03733 89.1506574,65.6106634 C86.7239908,63.1839968 85.6453242,59.4093302 85.6453242,54.8266637 L85.6453242,54.8266637 L85.6453242,21.3933315 C85.6453242,20.0453315 86.1839908,19.5066645 87.5319908,19.5066645 L87.5319908,19.5066645 L93.1946573,19.5066645 Z M186.750655,20.1586645 C188.098655,20.1586645 188.637322,20.9666645 188.637322,22.0453315 L188.637322,22.0453315 L188.637322,66.8013301 C188.637322,68.14933 188.098655,68.68933 186.750655,68.68933 L186.750655,68.68933 L181.087988,68.68933 C179.739989,68.68933 179.201322,68.14933 179.201322,66.8013301 L179.201322,66.8013301 L179.201322,22.0453315 C179.201322,20.6973315 179.739989,20.1586645 181.087988,20.1586645 L181.087988,20.1586645 L186.750655,20.1586645 Z M59.7613248,18.4279978 C64.3453247,18.4279978 67.5813246,19.7759978 70.0066579,22.2026648 C72.4333245,24.6293318 73.5119912,28.1333308 73.5119912,32.7173308 L73.5119912,32.7173308 L73.5119912,66.4186634 C73.5119912,67.7666633 72.9733245,68.3066633 71.6253245,68.3066633 L71.6253245,68.3066633 L65.9639914,68.3066633 C64.6146581,68.3066633 64.0759914,67.7666633 64.0759914,66.4186634 L64.0759914,66.4186634 L64.0759914,35.4133308 C64.0759914,32.1786648 63.2666581,30.0213308 62.1879914,28.4039978 C61.1093248,26.7853318 59.2226582,25.9773318 56.5266583,25.9773318 C51.9426584,25.9773318 47.3599918,27.3253308 42.5066586,30.2906648 L42.5066586,30.2906648 L42.5066586,66.4186634 C42.5066586,67.7666633 41.967992,68.3066633 40.619992,68.3066633 L40.619992,68.3066633 L34.9573255,68.3066633 C33.6093255,68.3066633 33.0706588,67.7666633 33.0706588,66.4186634 L33.0706588,66.4186634 L33.0706588,35.4133308 C33.0706588,32.1773308 32.2613255,30.0213308 31.1826589,28.4039978 C30.1053256,26.7853318 28.2173256,25.9759978 25.5213257,25.9759978 C20.6679925,25.9759978 16.0839926,27.5946648 11.501326,30.2906648 L11.501326,30.2906648 L11.501326,66.6879967 C11.501326,68.03733 10.9613261,68.5759966 9.61465943,68.5759966 L9.61465943,68.5759966 L3.9519929,68.5759966 C2.60399293,68.5759966 2.06399295,68.03733 2.06399295,66.6879967 L2.06399295,66.6879967 L2.06399295,21.9333318 C2.06399295,20.5839978 2.60399293,20.0453318 3.9519929,20.0453318 L3.9519929,20.0453318 L8.42701812,20.0456008 C8.91036611,20.0480248 9.3709261,20.0722648 9.61332609,20.3146648 C10.1533261,20.5839978 10.4226594,20.8546648 10.4226594,21.6626648 L10.4226594,21.6626648 L10.9613261,24.6293318 C16.8933259,20.5839978 22.8253258,18.4279978 28.7573256,18.4279978 C34.6879921,18.4279978 38.731992,20.5839978 40.8893253,25.1679978 C47.0906585,20.5839978 53.561325,18.4279978 59.7613248,18.4279978 Z M183.785322,0 C185.671988,0 187.289322,0.54 188.367988,1.617333 C189.446655,2.426666 189.717322,4.044 189.717322,5.661333 C189.717322,7.28 189.177322,8.628 188.098655,9.706666 C187.019988,10.785333 185.671988,11.324 183.785322,11.324 C181.897322,11.324 180.549322,10.785333 179.470655,9.706666 C178.393322,8.897333 177.853322,7.28 177.853322,5.661333 C177.853322,4.044 178.393322,2.697333 179.470655,1.617333 C180.549322,0.54 181.897322,0 183.785322,0 Z" fill="currentColor"></path>
</svg>
