<svg viewBox="0 0 440 440" xmlns="http://www.w3.org/2000/svg">
  <path d="M348.439024,41.4366587 C447.073244,112.393187 469.52867,249.86168 398.598668,348.483512 C327.663463,447.100164 190.199831,469.522978 91.5593663,398.563341 C-7.07485363,327.603705 -29.5292382,190.135212 41.4049266,91.5164876 C112.334928,-7.10016384 249.802723,-29.5229779 348.439024,41.4366587 Z M220.5,13 C105.900914,13 13,105.900914 13,220.5 C13,335.099086 105.900914,428 220.5,428 C335.099086,428 428,335.099086 428,220.5 C428,105.900914 335.099086,13 220.5,13 Z M315.968,72.2499854 C317.898,72.247 319.601,72.707 321.018,73.58 C321.981,74.62 322.717,75.936 323.181,77.505 C323.622,78.985 323.729,106.101 323.618,185.494 L323.618,185.494 L323.468,291.509 L322.327,295.461 C318.46,308.908 309.01,318.428 295.626,322.353 C286.168,325.129 272.348,326.158 265.558,324.595 C261.056,323.558 257.475,321.921 253.964,319.206 C253.328,318.654 252.698,318.067 252.055,317.436 C245.085,310.585 241.994,303.588 241.98,294.629 C241.973,289.621 242.88,285.849 245.309,280.816 C248.744,273.702 253.189,269.419 261.192,265.508 C267.603,262.381 273.33,260.758 290.067,257.341 C301.068,255.097 303.744,254.132 305.89,251.643 C308.839,248.219 308.772,249.491 308.622,195.244 C308.491,148.113 308.438,145.525 307.559,144.216 C307.074,143.486 306.382,142.893 305.562,142.453 C304.18,140.751 301.65,139.888 298.97,140.26 C295.923,140.687 187.694,162.085 184.993,162.794 C181.996,163.585 179.821,165.914 179.123,169.096 C178.712,170.971 178.611,319.834 175.393,328.192 C174.472,330.579 172.828,333.863 171.732,335.496 C168.968,339.619 163.653,344.631 159.521,347.022 C149.641,352.737 130.314,355.677 119.991,353.034 C115.322,351.836 111.169,349.818 107.651,347.107 C103.781,343.649 100.821,339.254 98.982,334.108 C97.227,329.187 96.815,321.095 98.047,315.687 C99.335,310.03 102.315,304.638 106.339,300.689 C113.424,293.733 121.799,290.5 144.351,286.012 C149.223,285.044 154.242,283.918 155.512,283.509 C158.192,282.65 161.099,279.953 162.408,277.106 C163.25178,275.2734 163.805519,115.64612 163.827331,109.261761 L163.828,109.065 L165.011,106.719 C166.407,103.95 169.349,101.341 172.319,100.243 C174.239,99.533 286.638,77.147 305.707,73.675 C310.017,72.891 314.638,72.2499854 315.968,72.2499854 Z" fill="currentColor"></path>
</svg>
