<svg viewBox="0 0 821 723" xmlns="http://www.w3.org/2000/svg">
  <path d="M637.7,70.1 C640.6,68.1 644.3,68.4 647.2,71.4 C651.9,76.2 656.4,81.1 660.7,86.2 C702.4,135.5 729.2,191.8 740.1,255.6 C742.9,272.5 744.7,289.5 745,306.7 C747,410.3 711.1,498.8 637.7,571.2 C584.2,624 519.4,655.7 445.2,667.7 C424.6,671.1 403.8,672.7 383,672.1 C296.9,669.6 221,640.5 155.8,584 C152.4,581 149.1,578 145.8,574.9 C141.9,571.2 141.1,568.1 143.1,564.8 C145.1,561.3 148.6,560.4 153.6,562.3 C176.3,571.1 199.8,577.5 223.8,581.6 C247.3,585.7 271,587.7 294.9,587 C389.7,584.3 472.4,551.1 542,486.6 C595.4,437.1 630.8,376.5 649.1,306 C654.8,284.1 658.4,261.8 659.6,239.1 L659.6,239.1 L660.8,214.2 C660.5,168.6 652.3,124.5 636.3,81.8 C636,80.9 635.6,80 635.3,79 C634.1,74.9 634.9,72 637.7,70.1 Z M145.1,64.4 C169.8,64.5 194.4,64.5 219.1,64.5 C227.1,64.5 229.5,67 229.5,75 L229.5,75 L229.5008,119.5 C229.504,129.5 229.52,139.5 229.6,149.5 C229.6,153.5 228.3,156.4 225.6,159.3 C192.2,194.7 171.7,236.5 164.7,284.8 C159.4,321.5 162.9,357.5 175.3,392.5 C175.5,393 175.6,393.4 175.8,393.9 C177.4,398.8 176.9,401.7 174,403.9 C171,406.2 168.4,406 163.9,402.9 C119,372.3 89.4,330.8 75.4,278.2 C69.8,257.1 67.3,235.6 68.6,213.9 C72,157 93.8,108.3 134.8,68.4 C137.7,65.6 141,64.4 145.1,64.4 Z M454.4,64.7 C460.2,64.6 464.3,66.4 468,71.2 C488,97.4 501.8,126.4 509.4,158.5 C509.6,159.4 509.7,160.4 509.9,161.4 C510.9,167 508.3,170.5 502.5,170.7 C496.2,170.9 489.8,170.7 483.5,170.8 C476.7,170.9 474.9,172.6 474.9,179.4 L474.9,179.4 L474.9,235.9 C474.9,276.8 445.6,311.1 405.3,317.6 C359.9,324.9 316.8,292.7 310.7,247.1 C310.6,246.3 310.6,245.4 310.5,244.8 C310.2,238.4 312.1,236.3 318.6,235.4 C349.6,231.2 372.1,215.3 385.1,186.7 C389.5,176.8 391.6,166.4 391.6,155.6 L391.6,155.6 L391.6,77.1 C391.6,75.4 391.5,73.7 391.7,72.1 C392.3,67.9 394.2,65.9 398.4,65.2 C400.2,64.9 402.1,64.8 403.9,64.8 C420.8,64.7 437.6,64.9 454.4,64.7 Z" fill="currentColor"></path>
</svg>
