<svg viewBox="0 0 191 26" xmlns="http://www.w3.org/2000/svg">
  <path d="M18.918532,12.61 L25.2238654,18.9166667 L18.918532,25.2233334 L12.6118653,18.9166667 L18.918532,12.61 Z M95.2281324,3.19552976 L95.2281324,24.7395177 L90.3067981,24.7395177 L90.3067981,3.19552976 L95.2281324,3.19552976 Z M118.043734,3.08839967 C123.7504,3.08839967 129.4864,6.75639968 129.4864,13.9190664 C129.4864,21.517733 123.6344,24.6323997 117.753067,24.6323997 L117.753067,24.6323997 L109.781067,24.6323997 L109.781067,3.08839967 L118.043734,3.08839967 Z M75.6694717,3.03 L75.6694717,7.2233334 L69.342805,7.2233334 L69.342805,24.5740001 L64.450805,24.5740001 L64.450805,7.2233334 L58.1241383,7.2233334 L58.1241383,3.03 L75.6694717,3.03 Z M182.064254,3.03 L182.064254,20.3220001 L190.574921,20.3220001 L190.574921,24.5740001 L177.144254,24.5740001 L177.144254,3.03 L182.064254,3.03 Z M155.156277,3.03 L164.032277,24.5740001 L158.622944,24.5740001 L157.04961,20.3233334 L147.96561,20.3233334 L146.37761,24.5740001 L141.114944,24.5740001 L150.076277,3.03 L155.156277,3.03 Z M117.607734,7.31106635 L114.555734,7.31106635 L114.555734,20.4390664 L117.723734,20.4390664 C121.683734,20.4390664 124.449067,17.8203997 124.449067,13.9483997 C124.449067,9.8723997 121.713067,7.31106635 117.607734,7.31106635 L117.607734,7.31106635 Z M152.52961,8.0700001 L149.284277,16.4953334 L155.744277,16.4953334 L152.52961,8.0700001 Z M18.918532,0 L25.2238654,6.30666668 L18.918532,12.6106667 L12.6120044,6.30666668 L6.30533768,12.612 L4.33500001e-06,6.30666668 L6.30533768,0 L12.6120044,6.30666668 L18.918532,0 Z M31.529731,0 L37.8350644,6.30666668 L31.529731,12.612 L25.2230643,6.30666668 L31.529731,0 Z" fill="#100F0D"></path>
</svg>
