<svg viewBox="0 0 1013 136" xmlns="http://www.w3.org/2000/svg">
  <path d="M216.1,37.5 C197.4,37.5 182.2,51.7 182.2,71.3 C182.2,90.8 197.4,105.1 216.1,105.1 C234.8,105.1 250.00097,90.8 250.00097,71.3 C250.1,51.7 234.8,37.5 216.1,37.5 Z M216.1,91.7 C205.9,91.7 197,83.3 197,71.2 C197,59 205.8,50.7 216.1,50.7 C226.4,50.7 235.2,59 235.2,71.2 C235.2,83.3 226.4,91.7 216.1,91.7 Z M142.1,37.5 C123.4,37.5 108.2,51.7 108.2,71.3 C108.2,90.8 123.4,105.1 142.1,105.1 C160.8,105.1 176,90.8 176,71.3 C176,51.7 160.8,37.5 142.1,37.5 Z M142.1,91.7 C131.9,91.7 123,83.3 123,71.2 C123,59 131.8,50.7 142.1,50.7 C152.3,50.7 161.2,59 161.2,71.2 C161.2,83.3 152.4,91.7 142.1,91.7 Z M54.1,47.8 L54.1,62.1 L88.4,62.1 C87.4,70.2 84.7,76.1 80.6,80.1 C75.6,85.1 67.8,90.6 54.1,90.6 C33,90.6 16.5,73.6 16.5,52.5 C16.5,31.4 33,14.4 54.1,14.4 C65.5,14.4 73.8,18.9 80,24.6 L90.1,14.5 C81.5,6.3 70.1,0 54.1,0 C25.2,0 0.8,23.6 0.8,52.5 C0.8,81.4 25.1,105 54.1,105 C69.7,105 81.5,99.9 90.7,90.3 C100.2,80.8 103.1,67.5 103.1,56.8 C103.1,53.5 102.8,50.4 102.3,47.8 L54.1,47.8 Z M414.1,59 C411.3,51.4 402.7,37.5 385.2,37.5 C367.8,37.5 353.3,51.2 353.3,71.3 C353.3,90.2 367.6,105.1 386.8,105.1 C402.3,105.1 411.2,95.6 415,90.1 L403.5,82.4 C399.7,88 394.4,91.7 386.9,91.7 C379.3,91.7 374,88.2 370.5,81.5 L415.7,62.8 L414.1,59 Z M368,70.2 C367.6,57.1 378.1,50.5 385.7,50.5 C391.6,50.5 396.6,53.4 398.2,57.7 L368,70.2 Z M331.3,103 L346.1,103 L346.1,3.7 L331.3,3.7 L331.3,103 Z M307,45 L306.5,45 C303.2,41 296.8,37.4 288.7,37.4 C271.8,37.4 256.3,52.2 256.3,71.3 C256.3,90.2 271.8,105 288.7,105 C296.8,105 303.2,101.4 306.5,97.3 L307,97.3 L307,102.2 C307,115.1 300.1,122 289,122 C279.9,122 274.3,115.5 272,110 L259.1,115.4 C262.8,124.4 272.7,135.4 289.1,135.4 C306.5,135.4 321.2,125.2 321.2,100.2 L321.2,39.5 L307,39.5 L307,45 Z M289.9,91.7 C279.7,91.7 271.1,83.1 271.1,71.3 C271.1,59.4 279.7,50.7 289.9,50.7 C300,50.7 307.9,59.4 307.9,71.3 C308,83.2 300,91.7 289.9,91.7 Z M483.7,3.7 L448.2,3.7 L448.2,103 L463,103 L463,65.4 L483.7,65.4 C500.1,65.4 516.3,53.5 516.3,34.6 C516.2,15.6 500.1,3.7 483.7,3.7 Z M484,51.5 L463,51.5 L463,17.5 L484,17.5 C495.1,17.5 501.4,26.7 501.4,34.5 C501.4,42.2 495.1,51.5 484,51.5 Z M575.7,37.3 C565,37.3 553.8,42 549.2,52.5 L562.4,58 C565.2,52.5 570.5,50.7 575.9,50.7 C583.6,50.7 591.4,55.3 591.5,63.5 L591.5,64.5 C588.8,63 583.1,60.7 576,60.7 C561.8,60.7 547.4,68.5 547.4,83.1 C547.4,96.4 559,105 572.1,105 C582.1,105 587.6,100.5 591,95.3 L591.5,95.3 L591.5,103 L605.8,103 L605.8,64.9 C605.8,47.1 592.7,37.3 575.7,37.3 Z M573.9,91.7 C569,91.7 562.3,89.3 562.3,83.3 C562.3,75.6 570.7,72.7 578,72.7 C584.5,72.7 587.6,74.1 591.5,76 C590.4,85.2 582.4,91.7 573.9,91.7 Z M658,39.5 L641,82.6 L640.5,82.6 L622.9,39.5 L606.9,39.5 L633.4,99.7 L618.3,133.2 L633.8,133.2 L674.6,39.5 L658,39.5 Z M524.4,103 L539.2,103 L539.2,3.7 L524.4,3.7 L524.4,103 Z" fill="#000000" opacity="0.54"></path>
  <path d="M859.8,40.1 L859.8,103 L848.5,103 L848.5,94.3 L848,94.3 C846.2,97.3 843.5,99.8 839.8,101.9 C836.1,104 832.2,105 828.2,105 C820.3,105 814.4,102.6 810.3,97.8 C806.2,93 804.2,86.6 804.2,78.6 L804.2,40.2 L816,40.2 L816,76.7 C816,88.4 821.2,94.2 831.5,94.2 C836.4,94.2 840.3,92.2 843.4,88.3 C846.5,84.4 848,79.9 848,74.7 L848,40.1 L859.8,40.1 Z M895.6,38.2 C901.1,38.2 906.1,39.5 910.4,42 C914.8,44.5 917.9,48.1 919.7,52.8 L909.5,57 C907.2,51.5 902.4,48.7 895.2,48.7 C891.7,48.7 888.8,49.4 886.4,50.9 C884,52.4 882.8,54.3 882.8,56.8 C882.8,60.4 885.6,62.8 891.1,64.1 L903.5,67 C909.4,68.4 913.7,70.7 916.6,74 C919.4,77.3 920.8,81.1 920.8,85.3 C920.8,90.9 918.5,95.6 913.9,99.4 C909.3,103.2 903.4,105 896.1,105 C889.1,105 883.3,103.3 878.8,99.9 C874.2,96.5 870.9,92.2 868.8,87.1 L879.3,82.7 C882.6,90.6 888.3,94.5 896.3,94.5 C900,94.5 903,93.7 905.3,92.1 C907.6,90.5 908.8,88.3 908.8,85.7 C908.8,81.6 905.9,78.8 900.2,77.4 L887.5,74.3 C883.5,73.3 879.7,71.3 876.1,68.5 C872.5,65.6 870.7,61.8 870.7,56.9 C870.7,51.4 873.2,46.9 878.1,43.4 C883,39.9 888.8,38.2 895.6,38.2 Z M984.7,38.2 C991.7,38.2 997.5,39.9 1002.1,43.3 C1006.7,46.7 1010.1,51 1012.2,56.2 L1001.4,60.7 C998.2,52.9 992.3,48.9 983.9,48.9 C978.7,48.9 974.1,51 970.1,55.3 C966.1,59.6 964.1,65 964.1,71.6 C964.1,78.2 966.1,83.6 970.1,87.9 C974.1,92.2 978.7,94.3 983.9,94.3 C992.7,94.3 998.7,90.4 1002.1,82.5 L1012.6,87 C1010.5,92.1 1007,96.4 1002.3,99.9 C997.5,103.3 991.7,105 984.7,105 C975.3,105 967.6,101.8 961.5,95.5 C955.4,89.1 952.4,81.2 952.4,71.6 C952.4,62 955.4,54.1 961.5,47.7 C967.6,41.3 975.3,38.2 984.7,38.2 Z M714.2,11.4 L746.1,67.2 L746.6,67.2 L778.5,11.4 L790.3,11.4 L790.3,103 L778.5,103 L778.5,48.6 L779,33.2 L778.5,33.2 L749.8,83.5 L742.9,83.5 L714.2,33.2 L713.7,33.2 L714.2,48.6 L714.2,103 L702.4,103 L702.4,11.4 L714.2,11.4 Z M941.9,40.3 L941.9,103 L930.1,103 L930.1,40.3 L941.9,40.3 Z M936,10.3 C938.3,10.3 940.3,11.1 941.9,12.7 C943.5,14.3 944.3,16.3 944.3,18.6 C944.4,21 943.5,22.9 941.9,24.5 C940.3,26.1 938.3,26.9 936,26.9 C933.7,26.9 931.7,26.1 930.1,24.5 C928.5,22.9 927.7,20.9 927.7,18.6 C927.7,16.3 928.5,14.3 930.1,12.7 C931.7,11.1 933.7,10.3 936,10.3 Z" fill="#FF5722"></path>
</svg>
