<svg viewBox="0 0 124 26" xmlns="http://www.w3.org/2000/svg">
  <defs>
    <linearGradient x1="49.9592876%" y1="-0.0829545817%" x2="49.9592876%" y2="100.031669%" id="service-itunes-store-linearGradient-1">
      <stop stop-color="#EF4DB7" offset="0%"></stop>
      <stop stop-color="#C643FD" offset="100%"></stop>
    </linearGradient>
    <radialGradient cx="222.536461%" cy="186.3666%" fx="222.536461%" fy="186.3666%" r="0.441618865%" gradientTransform="translate(2.225365,1.863666),scale(1,0.865672),translate(-2.225365,-1.863666)" id="service-itunes-store-radialGradient-2">
      <stop stop-color="#FAE9FC" offset="0%"></stop>
      <stop stop-color="#FAE9FC" offset="66.9%"></stop>
      <stop stop-color="#F8DEFA" offset="81.18%"></stop>
      <stop stop-color="#F6D4F8" offset="91%"></stop>
      <stop stop-color="#F6D4F8" offset="100%"></stop>
    </radialGradient>
    <radialGradient cx="-202.801244%" cy="41.7954678%" fx="-202.801244%" fy="41.7954678%" r="0.441618865%" gradientTransform="translate(-2.028012,0.417955),scale(1,0.893939),translate(2.028012,-0.417955)" id="service-itunes-store-radialGradient-3">
      <stop stop-color="#F9E3FB" offset="0%"></stop>
      <stop stop-color="#F9E3FB" offset="74.59%"></stop>
      <stop stop-color="#F8DEFB" offset="80.97%"></stop>
      <stop stop-color="#F3D0FA" offset="88.26%"></stop>
      <stop stop-color="#ECBAF9" offset="95.99%"></stop>
      <stop stop-color="#EAB2F9" offset="98.1%"></stop>
      <stop stop-color="#EAB2F9" offset="100%"></stop>
    </radialGradient>
    <radialGradient cx="-173.285191%" cy="-209.707024%" fx="-173.285191%" fy="-209.707024%" r="0.570815953%" gradientTransform="translate(-1.732852,-2.097070),scale(0.666667,1),translate(1.732852,2.097070)" id="service-itunes-store-radialGradient-4">
      <stop stop-color="#FAE1F8" offset="0%"></stop>
      <stop stop-color="#FAE1F8" offset="60%"></stop>
      <stop stop-color="#F7D6F7" offset="85%"></stop>
      <stop stop-color="#F7D6F7" offset="100%"></stop>
    </radialGradient>
    <radialGradient cx="71.4229903%" cy="371.424872%" fx="71.4229903%" fy="371.424872%" r="0.570815953%" gradientTransform="translate(0.714230,3.714249),scale(0.666667,1),translate(-0.714230,-3.714249)" id="service-itunes-store-radialGradient-5">
      <stop stop-color="#FAE9FB" offset="0%"></stop>
      <stop stop-color="#FAE9FB" offset="68%"></stop>
      <stop stop-color="#F8DEF8" offset="81.32%"></stop>
      <stop stop-color="#F5CAF2" offset="98%"></stop>
      <stop stop-color="#F5CAF2" offset="100%"></stop>
    </radialGradient>
    <radialGradient cx="-199.283517%" cy="217.174008%" fx="-199.283517%" fy="217.174008%" r="0.545468661%" gradientTransform="translate(-1.992835,2.171740),scale(1,0.760345),translate(1.992835,-2.171740)" id="service-itunes-store-radialGradient-6">
      <stop stop-color="#FBE3F8" offset="0%"></stop>
      <stop stop-color="#FBE3F8" offset="74.5%"></stop>
      <stop stop-color="#FADEF6" offset="80.82%"></stop>
      <stop stop-color="#F9D1F0" offset="87.98%"></stop>
      <stop stop-color="#F6BAE7" offset="95.54%"></stop>
      <stop stop-color="#F5B1E3" offset="98%"></stop>
      <stop stop-color="#F5B1E3" offset="100%"></stop>
    </radialGradient>
  </defs>
  <path d="M30.9,6.8 C30.9,6.2 31.4,5.7 32,5.7 C32.6,5.7 33,6.2 33,6.8 C33,7.3 32.6,7.8 32,7.8 C31.4,7.8 30.9,7.3 30.9,6.8 Z M31,9.1 L32.9,9.1 L32.9,18.2 L31,18.2 C31,18.2 31,9.1 31,9.1 Z M37.8,18.2 L37.8,7.4 L34,7.4 L34,5.8 L43.5,5.8 L43.5,7.5 L39.7,7.5 L39.7,18.3 L37.8,18.2 L37.8,18.2 L37.8,18.2 Z M51.3,18.2 L49.5,18.2 L49.5,16.6 L49.5,16.6 C49,17.7 48.1,18.3 46.7,18.3 C44.7,18.3 43.5,17 43.5,15 L43.5,9.1 L45.4,9.1 L45.4,14.5 C45.4,15.9 46.1,16.6 47.3,16.6 C48.6,16.6 49.5,15.7 49.5,14.3 L49.5,9.1 L51.4,9.1 L51.3,18.2 L51.3,18.2 L51.3,18.2 Z M53.2,9.1 L55,9.1 L55,10.6 L55,10.6 C55.5,9.5 56.5,9 57.8,9 C59.8,9 60.9,10.3 60.9,12.4 L60.9,18.2 L59,18.2 L59,12.8 C59,11.4 58.4,10.7 57.1,10.7 C55.8,10.7 55,11.6 55,13 L55,18.2 L53.1,18.2 L53.2,9.1 L53.2,9.1 L53.2,9.1 Z M70.5,15.5 C70.2,17.1 68.6,18.3 66.6,18.3 C64,18.3 62.3,16.5 62.3,13.7 C62.3,10.9 63.9,9 66.5,9 C69,9 70.6,10.7 70.6,13.5 L70.6,14.1 L64.2,14.1 L64.2,14.2 C64.2,15.7 65.2,16.8 66.6,16.8 C67.6,16.8 68.4,16.3 68.7,15.5 L70.5,15.5 Z M64.2,12.8 L68.7,12.8 C68.7,11.4 67.8,10.5 66.5,10.5 C65.3,10.5 64.3,11.5 64.2,12.8 Z M75.4,9 C77.4,9 78.8,10.1 78.9,11.7 L77.2,11.7 C77.1,10.9 76.4,10.4 75.4,10.4 C74.4,10.4 73.7,10.9 73.7,11.6 C73.7,12.1 74.1,12.5 75.1,12.7 L76.6,13.1 C78.4,13.5 79.1,14.2 79.1,15.5 C79.1,17.1 77.6,18.3 75.3,18.3 C73.2,18.3 71.7,17.2 71.6,15.6 L73.4,15.6 C73.5,16.5 74.2,16.9 75.4,16.9 C76.5,16.9 77.2,16.4 77.2,15.7 C77.2,15.1 76.9,14.8 75.9,14.6 L74.3,14.2 C72.7,13.8 71.8,13 71.8,11.7 C71.9,10.1 73.3,9 75.4,9 Z M85.7,14.7 C85.8,15.9 87,16.7 88.7,16.7 C90.3,16.7 91.4,15.9 91.4,14.8 C91.4,13.8 90.7,13.3 89.1,12.9 L87.5,12.5 C85.2,11.9 84.2,10.9 84.2,9.2 C84.2,7.1 86.1,5.6 88.7,5.6 C91.3,5.6 93.1,7.1 93.2,9.2 L91.3,9.2 C91.2,8 90.2,7.2 88.7,7.2 C87.2,7.2 86.2,8 86.2,9.1 C86.2,10 86.9,10.5 88.5,10.9 L89.9,11.2 C92.4,11.8 93.5,12.8 93.5,14.6 C93.5,16.9 91.6,18.4 88.7,18.4 C85.9,18.4 84.1,17 84,14.7 L85.7,14.7 L85.7,14.7 L85.7,14.7 Z M97.3,7 L97.3,9.1 L99,9.1 L99,10.6 L97.3,10.6 L97.3,15.6 C97.3,16.4 97.6,16.7 98.4,16.7 C98.6,16.7 98.9,16.7 99,16.7 L99,18.2 C98.8,18.3 98.4,18.3 98,18.3 C96.2,18.3 95.5,17.6 95.5,15.9 L95.5,10.7 L94.2,10.7 L94.2,9.1 L95.5,9.1 L95.5,7 L97.3,7 C97.3,7 97.3,7 97.3,7 Z M99.7,13.7 C99.7,10.9 101.4,9.1 104,9.1 C106.6,9.1 108.3,10.9 108.3,13.7 C108.3,16.6 106.6,18.3 104,18.3 C101.4,18.3 99.7,16.5 99.7,13.7 Z M106.4,13.7 C106.4,11.7 105.5,10.6 104,10.6 C102.5,10.6 101.6,11.8 101.6,13.7 C101.6,15.7 102.5,16.8 104,16.8 C105.5,16.8 106.4,15.6 106.4,13.7 Z M109.8,9.1 L111.6,9.1 L111.6,10.6 L111.6,10.6 C111.9,9.6 112.7,9 113.8,9 C114.1,9 114.3,9 114.4,9.1 L114.4,10.8 C114.3,10.7 113.9,10.7 113.6,10.7 C112.4,10.7 111.7,11.5 111.7,12.8 L111.7,18.2 L109.8,18.2 L109.8,9.1 L109.8,9.1 L109.8,9.1 Z M122.9,15.5 C122.6,17.1 121,18.3 119,18.3 C116.4,18.3 114.7,16.5 114.7,13.7 C114.7,10.9 116.3,9 118.9,9 C121.4,9 123,10.7 123,13.5 L123,14.1 L116.6,14.1 L116.6,14.2 C116.6,15.7 117.6,16.8 119,16.8 C120,16.8 120.8,16.3 121.1,15.5 L122.9,15.5 Z M116.6,12.8 L121.1,12.8 C121.1,11.4 120.2,10.5 118.9,10.5 C117.7,10.5 116.7,11.5 116.6,12.8 Z" fill="#000000"></path>
  <path d="M7.7,0 C7.4,0 7.2,0 7,0 C6.7,0 6.5,0 6.2,0 C5.6,0 5.1,0 4.5,0.1 C4,0.2 3.5,0.4 3,0.7 C2.5,0.9 2,1.2 1.6,1.6 C1.2,2 0.9,2.4 0.6,2.9 C0.3,3.4 0.2,3.9 0.1,4.5 C0,5.1 0,5.6 0,6.2 C0,6.5 0,6.7 0,7 C0,7.2 0,7.5 0,7.7 L0,7.8 L0,17.2 L0,17.4 C0,17.6 0,17.9 0,18.1 C0,18.4 0,18.6 0,18.9 C0,19.5 0,20 0.1,20.6 C0.2,21.2 0.4,21.7 0.6,22.2 C0.9,22.7 1.2,23.1 1.6,23.5 C2,23.9 2.4,24.2 2.9,24.5 C3.4,24.8 3.9,24.9 4.5,25 C5,25.1 5.6,25.1 6.2,25.1 C6.5,25.1 6.7,25.1 7,25.1 C7.3,25.1 7.5,25.1 7.7,25.1 L7.9,25.1 L17.3,25.1 L17.5,25.1 C17.8,25.1 18,25.1 18.2,25.1 C18.5,25.1 18.7,25.1 19,25.1 C19.6,25.1 20.1,25.1 20.7,25 C21.3,24.9 21.8,24.7 22.3,24.5 C22.8,24.2 23.2,23.9 23.6,23.5 C24,23.1 24.3,22.7 24.6,22.2 C24.9,21.7 25,21.2 25.1,20.6 C25.2,20.1 25.2,19.5 25.2,18.9 C25.2,18.6 25.2,18.4 25.2,18.1 C25.2,17.9 25.2,17.6 25.2,17.4 L25.2,7.7 C25.2,7.5 25.2,7.2 25.2,7 C25.2,6.7 25.2,6.5 25.2,6.2 C25.2,5.6 25.2,5.1 25.1,4.5 C25,3.9 24.8,3.4 24.6,2.9 C24.3,2.4 24,2 23.6,1.6 C23.2,1.2 22.8,0.9 22.3,0.6 C21.8,0.3 21.3,0.2 20.7,0.1 C20.2,0 19.6,0 19,0 C18.7,0 18.5,0 18.2,0 C17.9,0 17.7,0 17.5,0 L7.7,0 L7.7,0 Z" fill="url(#service-itunes-store-linearGradient-1)"></path>
  <path d="M6.9,19.3 C6.9,19.6 6.8,19.9 6.7,20.2 C6.7,20.3 6.7,20.4 6.7,20.5 C6.7,20.5 6.7,20.5 6.7,20.5 C6.7,20.6 6.7,20.6 6.7,20.7 C6.7,20.7 6.8,20.8 6.8,20.8 C6.8,20.8 6.9,20.8 6.9,20.9 C7,20.9 7,20.9 7.1,20.9 C7.1,20.9 7.1,20.9 7.1,20.9 C7.2,20.9 7.3,20.8 7.4,20.8 C7.6,20.6 7.9,20.5 8.1,20.3 L12.5,17.1 L10.1,15.2 L8.7,14.2 L6.9,19.3 Z" fill="url(#service-itunes-store-radialGradient-2)"></path>
  <path d="M12.5,17 L16.9,20.2 C17.1,20.4 17.4,20.5 17.6,20.7 C17.7,20.7 17.8,20.8 17.9,20.8 C17.9,20.8 17.9,20.8 17.9,20.8 C18,20.8 18,20.8 18.1,20.8 C18.2,20.8 18.2,20.8 18.3,20.8 C18.3,20.8 18.4,20.7 18.4,20.7 C18.4,20.6 18.4,20.6 18.4,20.5 C18.4,20.5 18.4,20.5 18.4,20.5 C18.4,20.4 18.4,20.3 18.4,20.2 C18.3,19.9 18.2,19.6 18.1,19.3 L16.4,14.2 L12.5,17 Z" fill="url(#service-itunes-store-radialGradient-3)"></path>
  <path d="M4.7,9.6 C4.4,9.6 4.1,9.6 3.8,9.6 C3.7,9.6 3.6,9.6 3.5,9.7 C3.5,9.7 3.5,9.7 3.5,9.7 C3.4,9.7 3.4,9.8 3.3,9.8 C3.3,9.8 3.2,9.9 3.2,9.9 C3.2,9.9 3.2,10 3.2,10.1 C3.2,10.2 3.2,10.2 3.3,10.3 C3.3,10.3 3.3,10.3 3.3,10.3 C3.4,10.4 3.4,10.4 3.5,10.5 C3.8,10.6 4,10.8 4.2,11 L8.6,14.2 L10.1,9.6 L4.7,9.6 Z" fill="url(#service-itunes-store-radialGradient-4)"></path>
  <path d="M14.9,9.6 L16.4,14.2 L20.8,11 C21.1,10.8 21.3,10.6 21.5,10.4 C21.6,10.3 21.6,10.3 21.7,10.2 C21.7,10.2 21.7,10.2 21.7,10.2 C21.7,10.1 21.8,10.1 21.8,10 C21.8,9.9 21.8,9.9 21.8,9.8 C21.8,9.8 21.8,9.7 21.7,9.7 C21.7,9.7 21.6,9.6 21.5,9.6 C21.5,9.6 21.5,9.6 21.5,9.6 C21.4,9.6 21.3,9.6 21.2,9.6 C20.9,9.6 20.6,9.6 20.3,9.6 L14.9,9.6 Z" fill="url(#service-itunes-store-radialGradient-5)"></path>
  <polygon fill="#FFFFFF" points="10.1 9.6 8.6 14.2 10.1 15.2 12.5 17 16.4 14.2 14.9 9.6"></polygon>
  <path d="M12.4,3.20000044 C12.3,3.20000044 12.3,3.30000044 12.3,3.30000044 C12.3,3.30000044 12.3,3.30000044 12.3,3.30000044 C12.2,3.40000044 12.1,3.50000044 12.1,3.60000044 C12,3.90000044 11.9,4.10000044 11.8,4.40000044 L10.1,9.60000044 L15,9.60000044 L13.3,4.40000044 C13.2,4.10000044 13.1,3.90000044 13,3.60000044 C13,3.50000044 12.9,3.40000044 12.9,3.30000044 C12.9,3.30000044 12.9,3.30000044 12.9,3.30000044 C12.9,3.20000044 12.8,3.20000044 12.8,3.20000044 C12.8,3.20000044 12.7,3.20000044 12.6,3.20000044 C12.5,3.20000044 12.4,3.10000044 12.4,3.20000044" fill="url(#service-itunes-store-radialGradient-6)"></path>
</svg>
