<svg viewBox="0 0 489 110" xmlns="http://www.w3.org/2000/svg">
  <path d="M468.4,31.7 C473.7,31.7 477.7,32.7 480.5,34.6 C483.3,36.5 485.3,39.5 486.5,43.6 C487.7,47.7 488.2,53.3 488.2,60.5 L488.2,72.2 L462.5,72.2 L462.5,75.8 C462.5,80.2 462.6,83.5 462.9,85.7 C463.2,87.9 463.7,89.5 464.5,90.5 C465.3,91.5 466.6,92 468.3,92 C470.6,92 472.2,91.1 473,89.3 C473.9,87.5 474.3,84.5 474.4,80.4 L487.7,81.2 C487.8,81.8 487.8,82.6 487.8,83.6 C487.8,89.9 486.1,94.6 482.6,97.7 C479.1,100.8 474.3,102.4 468,102.4 C460.4,102.4 455.1,100 452.1,95.3 C449.1,90.6 447.5,83.2 447.5,73.3 L447.5,61.2 C447.5,51 449.1,43.5 452.2,38.8 C455.4,34.1 460.8,31.7 468.4,31.7 Z M362.4,33 L362.4,83.1 C362.4,86.1 362.7,88.3 363.4,89.6 C364.1,90.9 365.2,91.5 366.7,91.5 C368,91.5 369.3,91.1 370.5,90.3 C371.7,89.5 372.6,88.4 373.2,87.2 L373.2,33 L388.5,33 L388.5,101.3 L376.5,101.3 L375.2,92.9 L374.9,92.9 C371.6,99.2 366.7,102.4 360.2,102.4 C355.7,102.4 352.3,100.9 350.2,97.9 C348,94.9 347,90.3 347,84 L347,33 L362.4,33 Z M283.5,33 L283.5,83.1 C283.5,86.1 283.8,88.3 284.5,89.6 C285.2,90.9 286.3,91.5 287.8,91.5 C289.1,91.5 290.4,91.1 291.6,90.3 C292.8,89.5 293.7,88.4 294.3,87.2 L294.3,33 L309.6,33 L309.6,101.3 L297.6,101.3 L296.3,92.9 L296,92.9 C292.7,99.2 287.8,102.4 281.3,102.4 C276.8,102.4 273.4,100.9 271.3,97.9 C269.1,94.9 268.1,90.3 268.1,84 L268.1,33 L283.5,33 Z M239.1,31.7 C244.1,31.7 248.2,32.7 251.2,34.8 C254.2,36.9 256.5,40.1 257.9,44.5 C259.3,48.9 260,54.8 260,62.1 L260,72 C260,79.3 259.3,85.1 257.9,89.5 C256.5,93.9 254.3,97.1 251.2,99.2 C248.1,101.2 243.9,102.3 238.7,102.3 C233.3,102.4 229.1,101.3 226,99.3 C222.9,97.2 220.7,94 219.4,89.6 C218.1,85.2 217.5,79.4 217.5,72.1 L217.5,62.2 C217.5,54.9 218.2,48.9 219.7,44.5 C221.2,40 223.5,36.8 226.7,34.8 C229.9,32.8 234,31.7 239.1,31.7 Z M412.5,4.3 L412.5,40.3 L412.6,40.3 C414,37.7 415.8,35.6 418.3,34 C420.7,32.4 423.4,31.6 426.2,31.6 C429.9,31.6 432.7,32.6 434.8,34.5 C436.9,36.5 438.4,39.6 439.3,43.9 C440.2,48.2 440.7,54.2 440.7,61.8 L440.7,61.8 L440.7,72.6 C440.7,82.7 439.4,90.2 437,95 C434.5,99.8 430.7,102.2 425.5,102.2 C422.6,102.2 420,101.5 417.6,100.2 C415.3,98.8 413.5,97 412.3,94.7 L412.3,94.7 L412,94.7 L410.4,101.2 L397.7,101.2 L397.7,4.3 L412.5,4.3 Z M351.3,7.8 L351.3,20.2 L336.1,20.2 L336.1,101.3 L321.1,101.3 L321.1,20.2 L305.8,20.2 L305.8,7.8 L351.3,7.8 Z M186.4,7.8 L192.5,36.4 C194.1,43.5 195.2,49.5 196,54.4 L196.4,54.4 C196.9,50.8 198.1,44.9 199.9,36.5 L206.2,7.8 L221.5,7.8 L203.8,70.9 L203.8,101.2 L188.7,101.2 L188.7,71 L188.6,71 L171.1,7.8 L186.4,7.8 Z M238.8,42.3 C236.7,42.3 235.3,43.4 234.4,45.7 C233.5,48 233.1,51.5 233.1,56.4 L233.1,77.7 C233.1,82.7 233.5,86.4 234.3,88.6 C235.1,90.8 236.6,91.9 238.8,91.9 C240.9,91.9 242.4,90.8 243.3,88.6 C244.2,86.4 244.6,82.7 244.6,77.7 L244.6,56.4 C244.6,51.5 244.2,47.9 243.3,45.7 C242.4,43.4 240.9,42.3 238.8,42.3 Z M419.3,42.5 C417.8,42.5 416.5,43.1 415.2,44.3 C413.9,45.5 413,47 412.5,48.9 L412.5,48.9 L412.5,87.7 C413.2,88.9 414,89.8 415.1,90.4 C416.2,91 417.3,91.3 418.6,91.3 C420.2,91.3 421.5,90.7 422.5,89.5 C423.5,88.3 424.2,86.3 424.6,83.5 C425,80.7 425.2,76.8 425.2,71.8 L425.2,71.8 L425.2,62.9 C425.2,57.5 425,53.4 424.7,50.5 C424.3,47.6 423.8,45.5 422.9,44.3 C422.1,43.1 420.9,42.5 419.3,42.5 Z M468.1,42 C466.4,42.1 465.2,42.6 464.5,43.5 C463.7,44.5 463.2,46 462.9,48.2 C462.612,50.312 462.50832,53.43776 462.500486,57.6657536 L462.5,63.1 L473.7,63.1 L473.7,58.2 C473.7,53.8 473.6,50.5 473.3,48.2 C473,45.9 472.5,44.3 471.7,43.4 C470.9,42.5 469.7,42 468.1,42 Z" fill="#282828"></path>
  <path d="M77.9291865,8.92e-05 C80.6890596,0.0029701 126.863,0.0990001 138.6,3.3000001 C145.3,5.1000001 150.6,10.4000001 152.4,17.1000001 C155.601,28.9340001 155.79112,53.0937901 155.799646,54.5327269 L155.799788,54.7194433 C155.79472,56.6107201 155.668,80.4840001 152.5,92.1000001 C150.7,98.8000001 145.4,104.1 138.7,105.9 C127.326,109.002 83.6122396,109.18812 78.4075348,109.199287 L77.3924644,109.199287 C72.1877596,109.18812 28.4739996,109.002 17.0999996,105.9 C10.3999996,104.1 5.0999996,98.8000001 3.2999996,92.1000001 C0.1649996,80.5100001 0.0082496,57.0972501 0.0004121,54.7849501 L0.0003996,54.4150626 C0.0079996,52.1030001 0.1599996,28.6950001 3.1999996,17.2000001 C4.9999996,10.5000001 10.2999996,5.2000001 16.9999996,3.4000001 C29.0999996,0.1000001 77.7999996,9.99999957e-08 77.7999996,9.99999957e-08 Z M62.2999996,31.2000001 L62.2999996,78.0000001 L102.7,54.6000001 L62.2999996,31.2000001 Z" fill="#FF0000"></path>
</svg>
