<svg viewBox="0 0 98 20" xmlns="http://www.w3.org/2000/svg">
  <path d="M58.956,10 C58.956,6.40766384 61.8681638,3.4955 65.4605,3.4955 C69.0528362,3.4955 71.965,6.40766384 71.965,10 C71.965,13.5923362 69.0528362,16.5045 65.4605,16.5045 C61.8681638,16.5045 58.956,13.5923362 58.956,10 Z M25.133,4.958 L25.133,3.9 L27.53,3.9 L27.53,16.1 L25.133,16.1 L25.133,15.042 C22.4809071,17.2031025 18.607988,16.9402254 16.2722472,14.4405703 C13.9365064,11.9409151 13.9365064,8.05908487 16.2722472,5.55942972 C18.607988,3.05977457 22.4809071,2.79689752 25.133,4.958 Z M91.353,3.9 L93.75,3.9 L93.75,16.1 L91.353,16.1 L91.353,15.042 C88.7009071,17.2031025 84.827988,16.9402254 82.4922472,14.4405703 C80.1565064,11.9409151 80.1565064,8.05908487 82.4922472,5.55942972 C84.827988,3.05977457 88.7009071,2.79689752 91.353,4.958 L91.353,3.9 Z M73.623,9.945 C73.623,7.145 74.829,5.567 76.224,4.674 C78.134,3.452 80.395,3.518 80.395,3.522 L80.395,6.119 C80.395,6.119 76.225,5.898 76.225,9.945 L76.225,16.1 L73.622,16.1 L73.622,9.945 L73.623,9.945 Z M35.974,3.495 C37.439,3.495 38.79,3.98 39.877,4.797 C41.5153294,6.02456373 42.4788911,7.95279889 42.4770028,10 L42.4770028,16.1 L39.875,16.1 L39.875,10 C39.8722466,7.84651672 38.1274825,6.10130536 35.974,6.098 C33.819346,6.09965269 32.0727568,7.84534708 32.07,10 L32.07,16.1 L29.4699984,16.1 L29.4699984,10 C29.4685806,7.95244647 30.4329168,6.02414461 32.072,4.797 C33.1965912,3.95056616 34.5664664,3.49382405 35.974,3.496 L35.974,3.495 Z M54.824,4.958 L54.824,1.198 C54.824,0.536 55.362,4.4408921e-16 56.024,4.4408921e-16 L57.222,4.4408921e-16 L57.222,16.1 L54.825,16.1 L54.825,15.042 C52.1729071,17.2031025 48.299988,16.9402254 45.9642472,14.4405703 C43.6285064,11.9409151 43.6285064,8.05908487 45.9642472,5.55942972 C48.299988,3.05977457 52.1729071,2.79689752 54.825,4.958 L54.824,4.958 Z M2.397,4.958 C5.04909295,2.79689752 8.92201198,3.05977457 11.2577528,5.55942972 C13.5934936,8.05908487 13.5934936,11.9409151 11.2577528,14.4405703 C8.92201198,16.9402254 5.04909295,17.2031025 2.397,15.042 L2.397,18.802 C2.397,19.464 1.86,20 1.198,20 L0,20 L0,3.9 L2.397,3.9 L2.397,4.958 L2.397,4.958 Z M2.313,10 C2.31575491,12.2339543 4.12604573,14.0442451 6.36,14.047 C8.59395427,14.0442451 10.4042451,12.2339543 10.407,10 C10.4042451,7.76604573 8.59395427,5.95575491 6.36,5.953 C4.12604573,5.95575491 2.31575491,7.76604573 2.313,10 Z M46.815,10 C46.8177549,12.2339543 48.6280457,14.0442451 50.862,14.047 C53.0959543,14.0442451 54.9062451,12.2339543 54.909,10 C54.9062451,7.76604573 53.0959543,5.95575491 50.862,5.953 C48.6280457,5.95575491 46.8177549,7.76604573 46.815,10 L46.815,10 Z M83.343,10 C83.345205,12.2341824 85.1558176,14.044795 87.39,14.047 C89.6241824,14.044795 91.434795,12.2341824 91.437,10 C91.4342451,7.76604573 89.6239543,5.95575491 87.39,5.953 C85.1560457,5.95575491 83.3457549,7.76604573 83.343,10 Z M17.123,10 C17.125205,12.2341824 18.9358176,14.044795 21.17,14.047 C23.4041824,14.044795 25.214795,12.2341824 25.217,10 C25.2142451,7.76604573 23.4039543,5.95575491 21.17,5.953 C18.9360457,5.95575491 17.1257549,7.76604573 17.123,10 L17.123,10 Z M61.558,10 C61.5607547,12.153873 63.306127,13.8992453 65.46,13.902 C67.6142636,13.8997962 69.3602442,12.1542629 69.363,10 C69.3602453,7.84557467 67.6144253,6.09975467 65.46,6.097 C63.3057371,6.0997558 61.5602038,7.84573645 61.558,10 L61.558,10 Z M94.968,3.544 C94.968,2.877 95.505,2.346 96.166,2.346 C96.833,2.346 97.364,2.877 97.364,3.544 C97.3377383,4.18660785 96.8091442,4.69404083 96.166,4.69404083 C95.5228558,4.69404083 94.9942617,4.18660785 94.968,3.544 L94.968,3.544 Z M95.115,3.544 C95.115,4.121 95.584,4.595 96.166,4.595 C96.748,4.595 97.217,4.121 97.217,3.545 C97.217,2.956 96.748,2.493 96.167,2.493 C95.584,2.493 95.115,2.956 95.115,3.544 Z M96.5,4.234 L96.143,3.691 L95.878,3.691 L95.878,4.234 L95.714,4.234 L95.714,2.86 L96.274,2.86 C96.505,2.86 96.692,3.024 96.692,3.279 C96.6957531,3.4837185 96.5450372,3.65854895 96.342,3.685 L96.709,4.234 L96.499,4.234 L96.5,4.234 Z M95.878,3.013 L95.878,3.533 L96.273,3.533 C96.409532,3.52584086 96.5180088,3.41562844 96.523,3.279 C96.523,3.126 96.393,3.013 96.273,3.013 L95.878,3.013 L95.878,3.013 Z" fill="#3668FF"></path>
</svg>
