<svg viewBox="0 0 1231 298" xmlns="http://www.w3.org/2000/svg">
  <path d="M878.3,90.7 C924.6,90.7 954.6,116.4 956,153.1 L956,153.1 L917.7,153.1 C915.5,133.9 901.2,121.8 878.4,121.8 C856.3,121.8 841.6,132.5 841.6,148.5 C841.6,160.9 850.6,169.5 872.2,174.4 L872.2,174.4 L904.5,181.8 C945.2,191.2 960.6,207.1 960.6,235.9 C960.6,272.2 926.8,297.1 879.9,297.1 C830.2,297.1 800.4,272.7 796.6,234.9 L796.6,234.9 L837.1,234.9 C840.9,255.7 855.1,265.9 880,265.9 C904.5,265.9 919.7,255.7 919.7,239.4 C919.7,226.5 912.4,219 890.6,214.1 L890.6,214.1 L858.3,206.5 C820.5,197.8 801.8,179.6 801.8,150.7 C801.7,115.1 832.6,90.7 878.3,90.7 Z M1144.4,90.6 C1195.6,90.6 1226.8,123.5 1230.4,162.6 L1230.4,162.6 L1191.4,162.7 C1187.2,141.6 1171.3,124.7 1144.7,124.7 C1113.1,124.7 1092.4,150.9 1092.4,193.6 C1092.4,237.3 1113.4,262.6 1145.1,262.6 C1170.3,262.6 1186.7,248.8 1191.4,225.7 L1191.4,225.7 L1230.7,225.7 C1226.4,268.1 1192.5,296.8 1144.7,296.8 C1087.8,296.8 1050.8,257.8 1050.8,193.6 C1050.8,130.5 1087.9,90.6 1144.4,90.6 Z M642.4,94.3 L642.4,215.1 C642.4,245.3 656.7,261.6 684.9,261.6 C714.4,261.6 732.1,241.2 732.1,210.2 L732.1,210.2 L732.1,94.3 L773,94.3 L773.1,293.1 L734,293.1 L734,259.5 L733,259.5 C722,283.3 701.8,296.7 671.4,296.7 C628.2,296.7 601.6,268.6 601.6,223 L601.6,223 L601.6,94.3 L642.4,94.3 Z M151.9,76.4 C165.3,71.6 176.5,69.6 185.7,70.4 C210.6,72.4 229.5,82.2 241.9,100 C219.5,113.6 208.5,132.5 208.8,156.8 C209,175.7 215.9,191.5 229.4,204 C235.5,209.8 242.3,214.3 250,217.5 C248.4,222.2 246.6,226.8 244.8,231.2 C240.3,241.6 235,251.1 228.9,259.9 C220.5,271.9 213.7,280.1 208.3,284.8 C200.1,292.3 191.3,296.2 181.9,296.4 C175.1,296.4 167,294.5 157.5,290.5 C148,286.6 139.3,284.7 131.3,284.7 C122.9,284.7 113.9,286.6 104.3,290.5 C94.6,294.4 86.9,296.5 81,296.6 C71.9,297 63,293 54,284.6 C48.2,279.6 41.1,271 32.5,258.9 C23.3,245.9 15.7,230.9 9.7,213.7 C3.2,195.4 0,177.4 0,160.1 C0,140.2 4.3,123 12.9,108.7 C19.7,97.1 28.7,88 39.9,81.4 C51.2,74.6 63.4,71.2 76.5,71 C83.7,71 93.1,73.2 104.7,77.6 C116.4,81.9 123.9,84.2 127.1,84.2 C129.6,84.2 137.8,81.6 151.9,76.4 Z M1026.1,94.3 L1026.1,293.1 L985.3,293.1 L985.3,94.3 L1026.1,94.3 Z M338.5,20.4 L426.7,237.7 L428.2,237.7 L516.2,20.4 L565.4,20.4 L565.4,293.1 L526.7,293.1 L526.7,92.4 L525.4,92.4 L443.1,293.1 L411.7,293.1 L329.4,92.4 L328.1,92.4 L328.1,293.1 L289.6,293.1 L289.6,20.4 L338.5,20.4 Z M187.3,0 C187.4,1.9 187.5,3.9 187.5,5.9 C187.5,20.7 182.1,34.6 171.3,47.4 C158.2,62.6 142.5,71.5 125.4,70.1 C125.2,68.3 125.1,66.4 125.1,64.5 C125.1,50.3 131.3,35 142.3,22.5 C147.8,16.2 154.8,11 163.3,6.8 C171.7,2.6 179.7,0.4 187.3,0 Z M1005.7,15.2 C1018.7,15.2 1029.1,25.6 1029.1,38.7 C1029.1,51.6 1018.7,62.2 1005.6,62.2 C992.5,62.2 982.1,51.6 982.1,38.7 C982.1,25.7 992.7,15.2 1005.7,15.2 Z" fill="#000000"></path>
</svg>
