<svg viewBox="0 0 77 20" xmlns="http://www.w3.org/2000/svg">
  <path d="M14.3663873,0.217268548 C15.5334024,0.220491124 23.197,0.262384615 25.225,0.807 C26.4409978,1.13618446 27.3897178,2.08795254 27.715,3.305 C28.2544054,5.3302973 28.3006742,9.37542805 28.3046311,10.0180806 L28.3046855,10.1919375 C28.3011213,10.834721 28.2571622,14.8806216 27.715,16.905 C27.3895386,18.1223008 26.4403827,19.0741239 25.224,19.403 C23.2391538,19.9362692 15.8502637,19.9875451 14.4476743,19.9924755 L13.9863248,19.9924746 C12.5837271,19.9875359 5.19475,19.9361731 3.209,19.402 C1.99325614,19.0729946 1.04459116,18.1216627 0.719,16.905 C0.176837838,14.8806216 0.132878744,10.834721 0.129314493,10.1919375 L0.129314493,10.0180444 C0.132878744,9.37513002 0.176837838,5.32845946 0.719,3.305 C1.04446138,2.08769917 1.99361727,1.13587605 3.21,0.807 C5.238,0.262384615 12.9007456,0.220491124 14.0676295,0.217268548 Z M11.397,5.867 L11.397,14.344 L18.717,10.107 L11.397,5.867 Z" fill="#FF0000"></path>
  <path d="M40.699,7.888 C40.195,10.453 39.813,13.586 39.611,14.877 L39.469,14.877 C39.309,13.544 38.924,10.433 38.403,7.907 L37.113,1.627 L33.184,1.627 L33.184,18.577 L35.622,18.577 L35.622,4.605 L35.863,5.909 L38.34,18.574 L40.778,18.574 L43.215,5.91 L43.477,4.599 L43.477,18.576 L45.915,18.576 L45.915,1.627 L41.946,1.627 L40.7,7.888 L40.699,7.888 Z M52.504,16.03 C52.281,16.495 51.799,16.819 51.314,16.819 C50.75,16.819 50.528,16.374 50.528,15.284 L50.528,6.193 L47.747,6.193 L47.747,15.444 C47.747,17.728 48.491,18.777 50.145,18.777 C51.272,18.777 52.179,18.272 52.805,17.06 L52.865,17.06 L53.107,18.574 L55.282,18.574 L55.282,6.191 L52.502,6.191 L52.502,16.031 L52.504,16.031 L52.504,16.03 Z M60.663,11.081 C59.756,10.414 59.193,9.97 59.193,9 C59.193,8.314 59.515,7.93 60.28,7.93 C61.067,7.93 61.329,8.477 61.347,10.335 L63.685,10.235 C63.865,7.225 62.88,5.972 60.32,5.972 C57.943,5.972 56.774,7.042 56.774,9.244 C56.774,11.244 57.741,12.154 59.311,13.344 C60.661,14.395 61.447,14.981 61.447,15.828 C61.447,16.474 61.043,16.918 60.338,16.918 C59.513,16.918 59.028,16.13 59.151,14.758 L56.794,14.798 C56.433,17.363 57.46,18.858 60.199,18.858 C62.597,18.858 63.845003,17.747 63.845003,15.526 C63.847,13.505 62.838,12.698 60.663,11.081 L60.663,11.081 Z M65.378,6.193 L68.038,6.193 L68.038,18.577 L65.378,18.577 L65.378,6.193 Z M66.728,1.305 C65.7,1.305 65.218,1.688 65.218,3.021 C65.218,4.395 65.7,4.737 66.728,4.737 C67.776,4.737 68.238,4.393 68.238,3.021 C68.238,1.749 67.776,1.305 66.728,1.305 Z M76.981,14.112 L74.544,13.991 C74.544,16.172 74.303,16.879 73.477,16.879 C72.651,16.879 72.51,16.091 72.51,13.526 L72.51,11.12 C72.51,8.636 72.67,7.848 73.498,7.848 C74.263,7.848 74.465,8.594 74.465,10.899 L76.882,10.739 C77.042,8.819 76.801,7.506 76.056,6.759 C75.511,6.213 74.686,5.952 73.537,5.952 C70.837,5.952 69.729,7.406 69.729,11.487 L69.729,13.225 C69.729,17.427 70.675,18.78 73.435,18.78 C74.605,18.78 75.409,18.539 75.954,18.013 C76.74,17.28 77.042,16.029 76.981,14.111 L76.981,14.112 Z" fill="#000000"></path>
</svg>
