<svg viewBox="0 0 1000 192" xmlns="http://www.w3.org/2000/svg">
  <defs>
    <linearGradient x1="50.3799227%" y1="67.4367339%" x2="49.4388672%" y2="32.3538285%" id="service-deezer-linearGradient-1">
      <stop stop-color="#358C7B" offset="0%"></stop>
      <stop stop-color="#33A65E" offset="52.56%"></stop>
    </linearGradient>
    <linearGradient x1="-1.61198612%" y1="65.3225642%" x2="101.430759%" y2="34.5836212%" id="service-deezer-linearGradient-2">
      <stop stop-color="#222B90" offset="0%"></stop>
      <stop stop-color="#367B99" offset="100%"></stop>
    </linearGradient>
    <linearGradient x1="0%" y1="50.0313747%" x2="100.055553%" y2="50.0313747%" id="service-deezer-linearGradient-3">
      <stop stop-color="#FF9900" offset="0%"></stop>
      <stop stop-color="#FF8000" offset="100%"></stop>
    </linearGradient>
    <linearGradient x1="-0.0393171947%" y1="50.0313747%" x2="100.016236%" y2="50.0313747%" id="service-deezer-linearGradient-4">
      <stop stop-color="#FF8000" offset="0%"></stop>
      <stop stop-color="#CC1953" offset="100%"></stop>
    </linearGradient>
    <linearGradient x1="-0.0790528006%" y1="50.0313747%" x2="99.9769145%" y2="50.0313747%" id="service-deezer-linearGradient-5">
      <stop stop-color="#CC1953" offset="0%"></stop>
      <stop stop-color="#241284" offset="100%"></stop>
    </linearGradient>
    <linearGradient x1="-0.118387874%" y1="50.0313747%" x2="99.9371692%" y2="50.0313747%" id="service-deezer-linearGradient-6">
      <stop stop-color="#222B90" offset="0%"></stop>
      <stop stop-color="#3559A6" offset="100%"></stop>
    </linearGradient>
    <linearGradient x1="-3.99956551%" y1="59.1891376%" x2="103.897449%" y2="40.7168001%" id="service-deezer-linearGradient-7">
      <stop stop-color="#CC1953" offset="0%"></stop>
      <stop stop-color="#241284" offset="100%"></stop>
    </linearGradient>
    <linearGradient x1="-3.56666325%" y1="38.5408081%" x2="103.543154%" y2="61.3653772%" id="service-deezer-linearGradient-8">
      <stop stop-color="#FFCC00" offset="0.2669841%"></stop>
      <stop stop-color="#CE1938" offset="99.99%"></stop>
    </linearGradient>
    <linearGradient x1="8.42393044%" y1="27.4398809%" x2="91.552988%" y2="72.3506914%" id="service-deezer-linearGradient-9">
      <stop stop-color="#FFD100" offset="0.2669841%"></stop>
      <stop stop-color="#FD5A22" offset="100%"></stop>
    </linearGradient>
  </defs>
  <path d="M444.95329,61.732919 C480.67412,61.732919 504.85437,81.6999455 504.85437,117.23759 C504.85437,122.916285 504.30482,128.04543 503.20572,132.991391 L503.20572,132.991391 L415.46071,132.991391 C415.82707,152.775234 431.03132,163.949442 449.53288,163.949442 C465.46987,163.949442 475.54497,156.622092 479.57501,141.78421 L479.57501,141.78421 L509.25078,153.507969 C500.27478,178.60414 479.7582,191.243818 449.53288,191.243818 C409.59883,191.243818 380.6558,166.697198 380.6558,125.664041 C380.6558,88.8441111 406.85107,61.732919 444.95329,61.732919 Z M574.09782,61.732919 C609.81865,61.732919 633.9989,81.6999455 633.9989,117.23759 C633.9989,122.916285 633.44935,128.04543 632.35025,132.991391 L632.35025,132.991391 L544.60524,132.991391 C544.97161,152.775234 560.17586,163.949442 578.67741,163.949442 C594.6144,163.949442 604.6895,156.622092 608.71955,141.78421 L608.71955,141.78421 L638.39531,153.507969 C629.41931,178.60414 608.90273,191.243818 578.67741,191.243818 C538.74336,191.243818 509.80033,166.697198 509.80033,125.664041 C509.80033,88.8441111 535.9956,61.732919 574.09782,61.732919 Z M754.71698,61.732919 L754.71698,90.4927647 L683.64169,159.736216 L756.732,159.736216 L756.732,191.243818 L640.04396,191.243818 L640.04396,161.201686 L710.93607,91.7750508 L642.24217,91.7750508 L642.24217,61.732919 L754.71698,61.732919 Z M823.77725,61.732919 C859.49808,61.732919 883.67833,81.6999455 883.67833,117.23759 C883.67833,122.916285 883.12878,128.04543 882.02968,132.991391 L882.02968,132.991391 L794.28467,132.991391 C794.65103,152.775234 809.85528,163.949442 828.35684,163.949442 C844.29383,163.949442 854.36893,156.622092 858.39897,141.78421 L858.39897,141.78421 L888.07474,153.507969 C879.09874,178.60414 858.58216,191.243818 828.35684,191.243818 C788.42279,191.243818 759.47976,166.697198 759.47976,125.664041 C759.47976,88.8441111 785.67503,61.732919 823.77725,61.732919 Z M931.67247,61.916102 L931.67247,81.333578 C937.16798,69.243452 947.79264,61.916102 962.8137,61.916102 C986.07804,61.916102 1000,78.0362708 1000,100.201503 L1000,100.201503 L1000,110.093424 L966.11101,110.093424 L966.11101,110.093424 L966.11101,106.429749 C966.11101,96.904195 959.69958,87.561825 949.62447,87.3786412 C938.81663,87.3786412 931.67247,94.7059906 931.67247,107.895219 L931.67247,107.895219 L931.67247,191.243818 L896.68437,191.243818 L896.68437,61.916102 L931.67247,61.916102 Z M371.31343,0 L371.31343,191.060638 L337.7908,191.060638 L337.7908,172.559077 C329.18117,185.93149 313.79374,191.060638 295.47536,191.060638 C258.83862,191.060638 234.10881,167.063565 234.10881,126.946328 C234.10881,86.2795388 259.93772,61.732919 295.65855,61.732919 C313.97692,61.732919 328.63162,67.777982 336.50852,81.1503943 L336.50852,81.1503943 L336.50852,0 L371.31343,0 Z M303.35226,89.0272948 C284.11797,89.0272948 269.0969,103.681993 269.0969,126.946328 C269.0969,149.844294 283.93479,164.132625 303.35226,164.132625 C322.037,164.132625 337.60762,149.844294 337.60762,126.946328 C337.60762,103.865177 322.037,89.0272948 303.35226,89.0272948 Z M444.95329,87.0122738 C430.66496,87.0122738 418.75801,95.4387255 415.46071,109.727057 L415.46071,109.727057 L470.96538,109.727057 L471.14856,108.627954 C471.14856,95.4387255 460.52391,87.0122738 444.95329,87.0122738 Z M574.09782,87.0122738 C559.80949,87.0122738 547.90255,95.4387255 544.60524,109.727057 L544.60524,109.727057 L600.10991,109.727057 L600.29309,108.627954 C600.29309,95.4387255 589.66844,87.0122738 574.09782,87.0122738 Z M823.77725,87.0122738 C809.48892,87.0122738 797.58197,95.4387255 794.28467,109.727057 L794.28467,109.727057 L849.78934,109.727057 L849.97252,108.627954 C849.97252,95.4387255 839.34787,87.0122738 823.77725,87.0122738 Z" fill="#000000"></path>
  <rect fill="#40AB5D" x="155.52299" y="61.732919" width="42.864994" height="25.09617"></rect>
  <rect fill="url(#service-deezer-linearGradient-1)" x="155.52299" y="96.5378297" width="42.864994" height="25.09617"></rect>
  <rect fill="url(#service-deezer-linearGradient-2)" x="155.52299" y="131.342731" width="42.864994" height="25.09617"></rect>
  <rect fill="url(#service-deezer-linearGradient-3)" x="0" y="166.147643" width="42.864994" height="25.09617"></rect>
  <rect fill="url(#service-deezer-linearGradient-4)" x="51.840996" y="166.147643" width="42.864994" height="25.09617"></rect>
  <rect fill="url(#service-deezer-linearGradient-5)" x="103.68199" y="166.147643" width="42.864994" height="25.09617"></rect>
  <rect fill="url(#service-deezer-linearGradient-6)" x="155.52299" y="166.147643" width="42.864994" height="25.09617"></rect>
  <rect fill="url(#service-deezer-linearGradient-7)" x="103.68199" y="131.342731" width="42.864994" height="25.09617"></rect>
  <rect fill="url(#service-deezer-linearGradient-8)" x="51.840996" y="131.342731" width="42.864994" height="25.09617"></rect>
  <rect fill="url(#service-deezer-linearGradient-9)" x="51.840996" y="96.5378297" width="42.864994" height="25.09617"></rect>
</svg>
