<svg viewBox="0 0 1000 312" xmlns="http://www.w3.org/2000/svg">
  <path d="M155.57644,0 C69.655768,0 0,69.653906 0,155.57458 C0,241.49896 69.655768,311.1473 155.57644,311.1473 C241.5064,311.1473 311.15474,241.49896 311.15474,155.57458 C311.15474,69.659479 241.5064,0.00743 155.57458,0.00743 L155.57644,0 Z M226.92279,224.38319 C224.13611,228.95334 218.15405,230.40242 213.5839,227.59716 C177.05614,205.28517 131.07226,200.232 76.917847,212.60484 C71.699331,213.79382 66.497535,210.52412 65.308553,205.30375 C64.113997,200.08337 67.370693,194.88158 72.602214,193.6926 C131.86554,180.15306 182.70009,185.98279 223.70882,211.0443 C228.27897,213.84956 229.72805,219.81305 226.92279,224.38319 L226.92279,224.38319 Z M245.96508,182.02199 C242.45387,187.72911 234.98558,189.53116 229.28218,186.01995 C187.46345,160.31564 123.71729,152.8715 74.253785,167.88611 C67.838855,169.82378 61.063515,166.20853 59.116557,159.80475 C57.184462,153.38982 60.801568,146.62749 67.205351,144.67681 C123.70615,127.53318 193.94712,135.83748 241.97084,165.34838 C247.67424,168.85959 249.47629,176.32789 245.96508,182.02385 L245.96508,182.02199 Z M247.59993,137.91076 C197.45833,108.12862 114.73119,105.39025 66.857945,119.91998 C59.170433,122.2515 51.040769,117.91171 48.711107,110.2242 C46.381445,102.53297 50.717514,94.408883 58.410599,92.07179 C113.36572,75.388886 204.72227,78.612142 262.45106,112.88269 C269.3806,116.98654 271.64709,125.91691 267.54139,132.82229 C263.45426,139.73696 254.49974,142.01647 247.60736,137.91076 L247.59993,137.91076 Z M423.27202,143.61788 C396.40846,137.21224 391.63396,132.7164 391.63396,123.26956 C391.63396,114.34477 400.03114,108.33855 412.53403,108.33855 C424.64678,108.33855 436.64807,112.89941 449.24385,122.28865 C449.61541,122.57289 450.09843,122.68622 450.56288,122.61191 C451.0459,122.54131 451.45461,122.28308 451.73328,121.8948 L464.84924,103.40613 C465.388,102.64444 465.23937,101.59479 464.51484,101.01331 C449.52252,88.987868 432.65384,83.141421 412.92416,83.141421 C383.92415,83.141421 363.65572,100.547 363.65572,125.4506 C363.65572,152.15625 381.13747,161.61238 411.34505,168.91161 C437.03821,174.83237 441.38542,179.79265 441.38542,188.658 C441.38542,198.48568 432.61668,204.59779 418.49752,204.59779 C402.81782,204.59779 390.01768,199.30311 375.71274,186.93026 C375.35976,186.61444 374.87674,186.48439 374.43087,186.50297 C373.94785,186.54017 373.52056,186.76306 373.22331,187.11604 L358.50966,204.61637 C357.89659,205.35948 357.9709,206.437 358.67686,207.06864 C375.32261,221.93092 395.79539,229.77077 417.90303,229.77077 C449.15096,229.77077 469.345253,212.69773 469.345253,186.26146 C469.40078,163.95504 456.04334,151.60078 423.32776,143.64203 L423.27202,143.61788 Z M540.05235,117.12587 C526.5091,117.12587 515.39955,122.46143 506.2221,133.39449 L506.2221,121.08852 C506.2221,120.1169 505.44183,119.32549 504.47578,119.32549 L480.41747,119.32549 C479.45142,119.32549 478.67115,120.1169 478.67115,121.08852 L478.67115,257.82331 C478.67115,258.78936 479.45142,259.58821 480.41747,259.58821 L504.47578,259.58821 C505.44183,259.58821 506.2221,258.78936 506.2221,257.82331 L506.2221,214.66698 C515.39955,224.94053 526.5091,229.97513 540.05235,229.97513 C565.22533,229.97513 590.714171,210.59843 590.714171,173.55607 C590.75133,136.50628 565.26249,117.12401 540.07093,117.12401 L540.05235,117.12587 Z M562.7359,173.55607 C562.7359,192.41073 551.12475,205.58242 534.479,205.58242 C518.03761,205.58242 505.62761,191.81623 505.62761,173.55607 C505.62761,155.29405 518.03761,141.53158 534.479,141.53158 C550.84608,141.52958 562.7359,154.99495 562.7359,173.55421 L562.7359,173.55607 Z M656.01525,117.12587 C623.59692,117.12587 598.201,142.08706 598.201,173.95921 C598.201,205.48953 623.42972,230.17948 655.62512,230.17948 C688.15492,230.17948 713.62515,205.30375 713.62515,173.55607 C713.62515,141.91615 688.32212,117.12959 656.01525,117.12959 L656.01525,117.12587 Z M656.01525,205.7682 C638.77501,205.7682 625.77052,191.90912 625.77052,173.54678 C625.77052,155.10084 638.32915,141.71551 655.62512,141.71551 C672.97683,141.71551 686.05563,155.569 686.05563,173.94992 C686.05563,192.39215 673.42269,205.7682 656.01525,205.7682 Z M782.84619,119.32549 L756.37277,119.32549 L756.37277,92.265 C756.37277,91.295236 755.5925,90.50382 754.62645,90.50382 L730.56814,90.50382 C729.60209,90.50382 728.80325,91.295236 728.80325,92.265 L728.80325,119.32549 L717.24783,119.32549 C716.28178,119.32549 715.50151,120.1169 715.50151,121.08852 L715.50151,141.76009 C715.50151,142.72986 716.28178,143.52313 717.24783,143.52313 L728.80325,143.52313 L728.80325,197.01803 C728.80325,218.62406 739.55982,229.58499 760.79429,229.58499 C769.41441,229.58499 776.56688,227.80152 783.31064,223.97448 C783.86798,223.67724 784.20238,223.08275 784.20238,222.4511 L784.20238,202.75858 C784.20238,202.16409 783.88655,201.58818 783.36637,201.27236 C782.84619,200.93796 782.19597,200.91938 781.65721,201.19806 C777.03133,203.52029 772.55407,204.5978 767.53805,204.5978 C759.82825,204.5978 756.37277,201.08659 756.37277,193.24674 L756.37277,143.53243 L782.84619,143.53243 C783.81224,143.53243 784.59251,142.74101 784.59251,141.76939 L784.59251,121.09968 C784.62971,120.12806 783.8494,119.33665 782.86477,119.33665 L782.84619,119.32549 Z M875.06661,119.43138 L875.06661,116.1078 C875.06661,106.33029 878.81934,101.97007 887.21652,101.97007 C892.23254,101.97007 896.26393,102.96584 900.77835,104.47064 C901.33568,104.64527 901.9116,104.55794 902.35746,104.22542 C902.82191,103.89287 903.082,103.35969 903.082,102.79492 L903.082,82.526494 C903.082,81.751798 902.59898,81.066276 901.83729,80.837768 C897.08136,79.420279 890.98782,77.965633 881.84753,77.965633 C859.647,77.965633 847.88723,90.475954 847.88723,114.13112 L847.88723,119.22145 L836.33181,119.22145 C835.36576,119.22145 834.56691,120.01287 834.56691,120.98263 L834.56691,141.76009 C834.56691,142.72986 835.36576,143.52313 836.33181,143.52313 L847.88723,143.52313 L847.88723,226.01804 C847.88723,227.00267 848.68607,227.78294 849.65212,227.78294 L873.69185,227.78294 C874.67648,227.78294 875.45675,227.00267 875.45675,226.01804 L875.45675,143.5287 L897.91736,143.5287 L932.32353,226.01804 C928.42218,234.67532 924.57657,236.40306 919.33761,236.40306 C915.10187,236.40306 910.62461,235.13977 906.07303,232.63176 C905.64574,232.40882 905.12556,232.37167 904.6797,232.50171 C904.21525,232.66891 903.82511,233.00331 903.63934,233.44918 L895.48366,251.33965 C895.09353,252.19423 895.42796,253.17885 896.24535,253.62472 C904.75401,258.23203 912.42666,260.20128 921.91993,260.20128 C939.68035,260.20128 949.50803,251.91556 958.14673,229.6593 L999.8726,121.83907 C1000.0955,121.2966 1000.0212,120.68353 999.68679,120.20236 C999.37097,119.72491 998.83221,119.43695 998.2563,119.43695 L973.21336,119.43695 C972.45167,119.43695 971.78287,119.9144 971.54136,120.6185 L945.88535,193.87837 L917.79565,120.5702 C917.53556,119.8884 916.88534,119.43695 916.1608,119.43695 L875.06661,119.43695 L875.06661,119.43138 Z M821.59958,119.32549 L797.54127,119.32549 C796.57522,119.32549 795.77637,120.1169 795.77637,121.08852 L795.77637,226.01804 C795.77637,227.00267 796.57522,227.78294 797.54127,227.78294 L821.59958,227.78294 C822.56562,227.78294 823.36447,227.00267 823.36447,226.01804 L823.36447,121.09596 C823.36447,120.12433 822.5842,119.33292 821.59958,119.33292 L821.59958,119.32549 Z M809.70976,71.545131 C800.17932,71.545131 792.45094,79.258651 792.45094,88.787228 C792.45094,98.321377 800.17932,106.04419 809.70976,106.04419 C819.24019,106.04419 826.95,98.321377 826.95,88.787228 C826.95,79.260509 819.22161,71.545131 809.70976,71.545131 Z" fill="#1ED760"></path>
</svg>
