<svg viewBox="0 0 468 120" xmlns="http://www.w3.org/2000/svg">
  <polyline fill="#F7F16C" points="0 0 468 0 468 119.894653 0 119.894653 0 0"></polyline>
  <path d="M404.433424,68.7657462 C405.326097,68.8815323 405.255132,69.8713168 405.475499,70.5286832 C405.692131,71.4624421 406.241181,72.2953551 406.954573,72.9340463 C415.283703,79.7392817 427.456185,81.3565523 437.298005,77.0425858 C437.443671,77.1957223 437.731269,77.5019952 437.876935,77.6588667 C435.348316,81.4760734 431.202426,83.9486672 426.824964,85.069178 C418.775962,87.1271828 409.852961,86.0776377 402.730247,81.6964405 C400.713328,80.4041181 398.34158,79.0893855 397.575898,76.650407 C396.126704,72.6165682 400.164278,67.7386113 404.433424,68.7657462 Z M281.707614,32.4201117 C281.655323,46.2621548 281.707614,60.1041979 281.681468,73.946241 C281.632913,75.4253152 282.036297,77.0015004 283.134397,78.0547805 C283.858994,78.835403 284.949625,79.044565 285.834828,79.5786752 C285.99917,82.1222346 284.531301,84.8264006 282.058707,85.692929 C279.903591,86.428731 277.240511,86.1448683 275.56348,84.5014525 C274.357063,83.302506 273.703432,81.6067997 273.710902,79.9148284 C273.714637,65.9719393 273.710902,52.0290503 273.710902,38.0861612 C273.681022,35.669593 275.08913,33.178324 277.427263,32.341676 C278.783081,31.8673264 280.396616,31.7253951 281.707614,32.4201117 Z M207.955595,43.5430487 C214.368651,53.9339186 220.542666,64.4741899 226.862346,74.9248204 C228.180814,77.3227135 230.500271,79.5151796 233.417334,79.4068635 C234.123256,79.5487949 235.131716,79.0557702 235.621006,79.7766321 C235.277382,81.8869274 233.99253,83.8702314 232.110072,84.9197765 C229.86905,86.1859537 227.131269,86.32415 224.66241,85.7564246 C222.219697,85.1849641 220.367119,83.2726257 219.127087,81.1810056 C215.28747,74.8015642 211.473998,68.4109178 207.626911,62.0352115 C207.313168,61.5832721 207.186177,61.049162 207.223528,60.5038468 C207.227263,55.0357542 207.230998,49.5676616 207.227263,44.099569 C207.410279,43.9613727 207.772578,43.681245 207.955595,43.5430487 Z M330.263081,32.139984 C330.393807,40.7193615 330.270551,49.3099441 330.319106,57.8930567 C330.588029,63.7832083 332.25012,70.0057781 336.672402,74.1666081 C341.270231,78.6075658 348.060527,79.8513328 354.234541,79.2948125 C357.054493,79.0856504 359.769864,78.2602075 362.365714,77.1733121 C362.511381,77.2965682 362.802713,77.5393456 362.94838,77.6626018 C359.926736,82.3799521 354.481053,85.0579729 349.046576,85.79751 C343.21992,86.5183719 336.948795,85.9319713 331.887821,82.7385156 C328.208811,80.4862889 325.564405,76.8184836 324.122682,72.79585 C322.580112,68.638755 322.262634,64.1604469 322.266369,59.7643097 C322.281309,52.5407502 322.243958,45.3171907 322.281309,38.0936313 C322.217813,35.3745251 323.808939,32.5284278 326.54672,31.7963607 C327.730726,31.6245491 329.306911,31.2099601 330.263081,32.139984 Z M197.307007,32.4724022 C197.404118,46.3069753 197.318212,60.1490184 197.348093,73.9873264 C197.351828,75.507486 197.856057,77.1060814 199.032594,78.1294812 C199.69743,78.7943176 200.631189,79.0520351 201.434222,79.5039745 C201.837606,82.0437989 200.268891,84.8226656 197.807502,85.6742538 C195.532865,86.4772865 192.690503,86.107518 191.028412,84.24 C189.653919,82.8020112 189.351381,80.7215962 189.358851,78.8129928 C189.381261,65.3556584 189.347646,51.894589 189.373791,38.4372546 C189.340176,35.7554988 190.837925,32.8981963 193.579441,32.1997446 C194.748508,32.0167279 196.399393,31.5498484 197.307007,32.4724022 Z M35.2811492,40.5139346 C35.4529609,40.659601 35.7891141,40.9546688 35.9571907,41.1003352 C33.8431604,46.5236073 33.3986911,52.5930407 34.8030646,58.2516201 C36.2896089,64.4032243 39.9499441,69.987103 44.9548923,73.8491301 C50.9683001,78.5552753 58.9799521,80.6431604 66.5209896,79.4105986 C68.5901995,79.1566161 70.5548284,78.4432243 72.5493376,77.8792338 L72.8436584,78.0473403 C73.011735,78.143525 73.1932578,78.2475084 73.3075499,78.312498 C68.2652514,83.4780527 60.9595211,86.3054749 53.7621069,86.0477574 C47.5470072,85.9581165 41.4140782,83.515403 36.7639585,79.3993935 C31.8075658,75.085427 28.5356744,68.8740623 27.8409577,62.3340144 C26.8399681,54.4306784 29.6898005,46.179984 35.2811492,40.5139346 Z M118.777877,31.9196169 C119.349338,32.3155307 119.184996,33.0326576 119.222346,33.6265283 C119.199936,46.8261453 119.222346,60.0257622 119.211141,73.2253791 C119.199936,74.779154 119.663081,76.4076297 120.764916,77.5468156 C122.016153,78.9848045 124.033073,79.4292737 125.866975,79.4255387 C134.360447,79.4105986 142.857654,79.4255387 151.35486,79.4143336 C152.060782,81.1025698 151.291365,83.0746688 150.122298,84.3632562 C148.968172,85.5211173 147.298611,86.107518 145.670136,86.0514924 C136.575323,86.0365523 127.480511,86.0440223 118.385698,86.0440223 C116.402394,86.0440223 114.370535,85.2932801 112.999777,83.8328811 C111.79336,82.4621229 111.22937,80.6058101 111.233047,78.7980527 C111.240575,65.6059058 111.24431,52.413759 111.233047,39.2216121 C111.225634,37.1598723 111.939026,34.9860814 113.552562,33.6227933 C114.96067,32.3603512 116.914094,31.8486512 118.777877,31.9196169 Z M409.2068,33.4621868 C406.360702,37.3466241 405.669721,42.6690503 407.443863,47.1510934 C408.792211,50.7105826 411.888555,53.347518 415.298643,54.8751476 C419.900208,57.0414685 425.047087,57.3290662 429.932514,58.4831923 C432.113775,59.073328 434.593839,60.0182921 435.553743,62.2481085 C436.427741,64.1567119 435.81146,66.4873743 434.298771,67.8842777 C432.715116,69.4529928 430.451684,69.9497526 428.341389,70.3643416 C427.874509,69.0159936 427.631732,67.4248683 426.309529,66.6106305 C423.631508,64.8028731 420.281181,64.7020271 417.218452,64.0371907 C411.903496,63.2005427 406.390583,61.564597 402.49494,57.6540144 C398.068923,53.1682362 397.269625,45.7653951 400.276329,40.2935674 C401.882394,37.230838 404.642586,34.9113807 407.712785,33.3986911 C408.1834,33.0289226 408.73245,33.1633839 409.2068,33.4621868 Z M363.131397,32.0466081 C363.079106,40.4093536 363.135132,48.772099 363.105251,57.1348444 C362.959585,60.1378132 362.541261,63.2677733 360.90905,65.8598883 C359.583113,68.0075339 357.342091,69.5463687 354.876967,70.0543336 C354.454908,70.203735 354.047789,69.994573 353.666816,69.8713168 C354.675275,67.3763128 355.14589,64.6945571 355.13095,62.0090662 C355.142155,53.9152434 355.134685,45.8176856 355.134685,37.7238627 C355.082394,35.1989785 356.651109,32.6031285 359.138643,31.8598563 C360.430966,31.5050279 361.913775,31.3855068 363.131397,32.0466081 Z M60.2237191,53.2093216 C60.7092737,54.3858579 60.8997606,55.7005906 61.6355626,56.7650758 C62.6626975,58.1881245 64.268763,59.2899601 66.0578452,59.3683958 C68.2092259,59.4505666 70.3643416,59.3273105 72.5157223,59.4020112 C72.9228412,59.3609258 73.4606864,59.6858739 73.4009258,60.1490184 C73.419601,61.676648 73.4943017,63.2192179 73.3523703,64.7431125 C71.346656,66.6890662 68.6238148,67.6900559 65.9682043,68.4109178 C65.206257,67.60415 65.9457941,66.2184517 64.9261293,65.6096409 C62.1995531,65.2921628 59.0060974,66.3379729 56.7277255,64.3285235 C53.9936792,62.3153392 53.5828252,57.9864326 55.8238468,55.4578132 C56.9144773,54.1318755 58.5653631,53.4670391 60.2237191,53.2093216 Z M150.30905,58.1171588 C150.428571,59.6074381 150.297845,61.2284437 149.326736,62.4385954 C148.15767,64.0521309 146.099665,64.7655227 144.161181,64.690822 C139.30937,64.6422666 134.457558,64.7468476 129.609481,64.6422666 C129.508635,64.5414206 129.306943,64.3434637 129.206097,64.2426177 C129.101516,62.2107582 129.191157,60.1751636 129.179952,58.139569 C136.21676,57.9826975 143.268508,58.031253 150.30905,58.1171588 Z M231.646927,32.0690184 C231.863559,33.5667678 231.770184,35.0831923 231.781389,36.5921468 C231.781389,44.0622187 231.781389,51.5322905 231.785124,59.0023623 C231.766449,60.4963767 231.889705,62.0090662 231.590902,63.4844054 C230.37328,62.7971588 229.910136,61.4077255 229.178069,60.2984198 C227.456217,57.3328013 225.562554,54.4605587 223.937813,51.4463847 C223.822027,46.9904868 223.922873,42.5271189 223.892993,38.067486 C223.855642,35.8152594 225.047119,33.4547167 227.161149,32.5134876 C228.543113,31.7851556 230.149178,31.9719074 231.646927,32.0690184 Z M73.423336,40.2860974 C73.3747805,42.4188029 73.4868316,44.5552434 73.3785156,46.6879489 C73.2664645,46.7850599 73.0386273,46.9867518 72.9228412,47.0875978 C70.827486,47.1847087 68.7209258,47.1249481 66.6218356,47.0950678 C62.2182283,42.5756744 55.1888907,40.8500878 49.2053631,42.8707422 C48.6637829,43.1695451 48.1408779,42.9641181 47.6515882,42.6802554 C50.0009258,38.9190742 53.9152434,36.1588827 58.2815004,35.3409098 C63.7346528,34.1942538 69.6995052,36.1439425 73.423336,40.2860974 Z M434.881437,38.3513488 C435.762905,39.1282362 437.021612,39.419569 437.802235,40.2860974 C438.015132,43.7447406 434.717095,47.1510934 431.187486,46.6468635 C428.774653,46.3181804 427.142442,44.3535515 425.028412,43.3600319 C422.974142,42.2619314 420.639745,41.7539665 418.316552,41.8361373 C417.655451,41.7875818 416.837478,42.0266241 416.422889,41.3543176 C416.183847,39.938739 416.628316,38.4223144 417.659186,37.4101197 C419.048619,36.0281564 420.998308,35.4193456 422.899441,35.1728332 C427.105092,34.6723384 431.497494,35.774174 434.881437,38.3513488 Z M149.778675,36.5958819 C150.391221,36.6519074 151.209194,36.4240702 151.578962,37.0889066 C152.146688,40.1628412 149.584453,43.1732801 146.499314,43.3077414 C141.371109,43.5094334 136.22423,43.3226816 131.088555,43.4011173 C130.434924,43.3450918 129.575866,43.6140144 129.206097,42.8856824 C129.135132,40.9584038 129.120192,39.0161852 129.213567,37.0851716 C129.336824,36.9731205 129.575866,36.7527534 129.699122,36.6407023 C136.388571,36.5473264 143.085491,36.6407023 149.778675,36.5958819 Z" fill="#000000"></path>
</svg>
