<svg viewBox="0 0 176 176" xmlns="http://www.w3.org/2000/svg">
  <path d="M88,0 C136.601058,0 176,39.398942 176,88 C176,136.601058 136.601058,176 88,176 C39.398942,176 0,136.601058 0,88 C0,39.398942 39.398942,0 88,0 Z M88,42 C62.6,42 42,62.6 42,88 C42,113.4 62.6,134 88,134 C113.4,134 134,113.4 134,88 C134,62.6 113.4,42 88,42 Z M88,46 C111.1,46 130,64.8 130,88 C130,111.2 111.2,130 88,130 C64.8,130 46,111.2 46,88 C46,64.8 64.9,46 88,46 Z M72,65 L72,111 L111,87 L72,65 Z" fill="currentColor"></path>
</svg>
